<svg xmlns="http://www.w3.org/2000/svg" fill="none" viewBox="0 0 100 100">
  <path d="M50 100c-3.299 0-6.337-.825-9.115-2.474-2.69-1.563-4.86-3.689-6.51-6.38-1.563-2.778-2.344-5.816-2.344-9.115 0-4.166.955-7.639 2.865-10.416 1.91-2.778 4.86-6.033 8.854-9.766 2.951-2.691 4.427-5.252 4.427-7.682v-2.344h-2.344c-2.69 0-6.38 2.691-11.067 8.073-4.601 5.382-10.2 8.073-16.797 8.073-3.299 0-6.337-.781-9.115-2.344a19.46 19.46 0 01-6.51-6.51C.78 56.337 0 53.297 0 50c0-3.299.781-6.293 2.344-8.984 1.65-2.778 3.82-4.948 6.51-6.51 2.778-1.65 5.816-2.475 9.115-2.475 6.51 0 12.066 2.648 16.666 7.943 4.601 5.295 8.334 7.943 11.198 7.943h2.344v-2.084c0-2.43-1.476-4.991-4.427-7.682l-2.995-2.734c-2.17-1.997-4.166-4.384-5.99-7.162-1.822-2.864-2.734-6.293-2.734-10.286 0-3.299.782-6.294 2.344-8.985 1.65-2.777 3.82-4.948 6.51-6.51C43.663.824 46.701 0 50 0c3.298 0 6.294.825 8.984 2.474 2.778 1.65 4.948 3.82 6.511 6.51 1.649 2.691 2.474 5.686 2.474 8.985 0 6.51-2.648 12.066-7.943 16.666-5.295 4.601-7.943 8.334-7.943 11.198v2.084h2.084c2.951 0 6.683-2.648 11.198-7.943 4.427-5.295 9.982-7.943 16.666-7.943 3.299 0 6.293.825 8.984 2.474 2.778 1.563 4.948 3.69 6.511 6.38C99.176 43.576 100 46.615 100 50c0 3.298-.825 6.337-2.474 9.114-1.563 2.692-3.733 4.861-6.51 6.511-2.692 1.563-5.686 2.344-8.985 2.344-4.08 0-7.595-.998-10.547-2.995-2.864-1.997-6.076-4.905-9.635-8.724-2.691-2.952-5.252-4.427-7.682-4.427h-2.084v2.343c0 3.213 2.648 6.945 7.943 11.199 5.295 4.253 7.943 9.809 7.943 16.666 0 3.299-.825 6.337-2.474 9.115a17.304 17.304 0 01-6.38 6.38C56.422 99.176 53.385 100 50 100z" fill="url(#x33aMAO_b4a)"/>
  <defs>
    <linearGradient id="x33aMAO_b4a" x1="80.166" y1="50" x2="14.779" y2="56.33" gradientUnits="userSpaceOnUse">
      <stop stop-color="#3284FA"/>
      <stop offset="1" stop-color="#F9540D"/>
    </linearGradient>
  </defs>
</svg>
