<svg xmlns="http://www.w3.org/2000/svg" fill="none" viewBox="0 0 100 100">
  <path fill-rule="evenodd" clip-rule="evenodd" d="M50 50s6.25-16.737 6.25-28.571C56.25 9.594 53.452 0 50 0s-6.25 9.594-6.25 21.429C43.75 33.263 50 50 50 50zm0 0s7.416 16.254 15.784 24.623c8.368 8.368 17.13 13.173 19.572 10.733 2.44-2.441-2.365-11.204-10.733-19.572C66.254 57.415 50 50 50 50zm0 0s16.737-6.25 28.572-6.25C90.406 43.75 100 46.548 100 50s-9.594 6.25-21.428 6.25C66.737 56.25 50 50 50 50zm0 0s-16.254 7.416-24.622 15.784c-8.369 8.368-13.174 17.13-10.733 19.572 2.44 2.44 11.203-2.365 19.571-10.733C42.585 66.254 50 50 50 50zm0 0c.014.037 6.25 16.75 6.25 28.572C56.25 90.406 53.452 100 50 100s-6.25-9.594-6.25-21.428C43.75 66.737 50 50 50 50zm0 0s-16.737-6.25-28.571-6.25C9.594 43.75 0 46.548 0 50s9.594 6.25 21.429 6.25C33.263 56.25 50 50 50 50zm0 0s16.254-7.415 24.623-15.784c8.368-8.368 13.173-17.13 10.733-19.571-2.441-2.441-11.204 2.364-19.572 10.733C57.415 33.745 50 50 50 50zM34.216 25.378C42.585 33.745 50 50 50 50s-16.254-7.415-24.622-15.784c-8.369-8.368-13.174-17.13-10.733-19.571 2.44-2.441 11.203 2.364 19.571 10.733z" fill="url(#v5pthZJzcXa)"/>
  <defs>
    <linearGradient id="v5pthZJzcXa" x1="96" y1="54.5" x2="0" y2="56.5" gradientUnits="userSpaceOnUse">
      <stop stop-color="#4870D5"/>
      <stop offset="1" stop-color="#DC83A4"/>
    </linearGradient>
  </defs>
</svg>
