<svg xmlns="http://www.w3.org/2000/svg" fill="none" viewBox="0 0 100 100">
  <path fill-rule="evenodd" clip-rule="evenodd" d="M62.45 2.459l-9.55 40.54L74.814 7.58a2 2 0 013.115-.362l14.853 14.853a2 2 0 01-.362 3.115L57.001 47.1l40.54-9.55A2 2 0 01100 39.498v21.006a2 2 0 01-2.459 1.947l-40.54-9.55L92.42 74.814a2 2 0 01.362 3.115L77.929 92.782a2 2 0 01-3.115-.362L52.9 57.001l9.55 40.54A2 2 0 0160.502 100H39.497a2 2 0 01-1.947-2.459l9.55-40.54L25.186 92.42a2 2 0 01-3.115.362L7.218 77.929a2 2 0 01.362-3.115L42.999 52.9l-40.54 9.55A2 2 0 010 60.502V39.497a2 2 0 012.459-1.947l40.54 9.55L7.58 25.186a2 2 0 01-.362-3.115L22.071 7.218a2 2 0 013.115.362L47.1 43 37.55 2.458A2 2 0 0139.497 0h21.006a2 2 0 011.947 2.459zM50 55.715a5.715 5.715 0 100-11.43 5.715 5.715 0 000 11.43z" fill="url(#Y8JOPeST2a)"/>
  <defs>
    <linearGradient id="Y8JOPeST2a" x1="17.5" y1="3" x2="77" y2="102" gradientUnits="userSpaceOnUse">
      <stop stop-color="#FFAB02"/>
      <stop offset="1" stop-color="#FF6503"/>
    </linearGradient>
  </defs>
</svg>
